<?xml version="1.0" encoding="utf-8"?>
<!-- Svg Vector Icons : http://www.onlinewebfonts.com/icon -->
<!DOCTYPE svg PUBLIC "-//W3C//DTD SVG 1.1//EN" "http://www.w3.org/Graphics/SVG/1.1/DTD/svg11.dtd">
<svg version="1.1" xmlns="http://www.w3.org/2000/svg" xmlns:xlink="http://www.w3.org/1999/xlink" x="0px" y="0px" viewBox="0 0 1000 1000" enable-background="new 0 0 1000 1000" xml:space="preserve">
<metadata> Svg Vector Icons : http://www.onlinewebfonts.com/icon </metadata>
<g><g id="XMLID_4_"><path id="XMLID_5_" d="M967.3,586.7c-50.6,0-129.7,30.4-167.6,73.8c-51.2-45-162.3-83.1-264.7-107.7c-37.2-56.2-40.5-99.5-37-125.2c0.9-6.9-1.5-13.7-6.6-18.5c-5.1-4.7-12.1-6.7-18.8-5.3c-66.8,13.5-103.5,72.4-122.6,119.5c-0.8,0-1.8-0.1-2.6-0.1c-103.4,0-252.6,83.8-252.6,187.3S244,897.8,347.4,897.8c3.4,0,7.2-0.1,11.3-0.3c37.3,20.1,81,32.5,113.2,32.5c39.5,0,20.2-18.6-3.2-47.4c116.1-22.2,268.4-67.1,331-122.1c37.8,43.5,117,73.9,167.6,73.9c68.4,0-39.5-55.5-39.5-123.9C927.8,642.2,1035.7,586.7,967.3,586.7z M210.5,712.7c-15.8,0-28.6-12.8-28.6-28.6s12.8-28.6,28.6-28.6c15.8,0,28.6,12.8,28.6,28.6C239.1,699.9,226.3,712.7,210.5,712.7z"/><path id="XMLID_8_" d="M45.4,544C25.8,544,10,559.8,10,579.3c0,19.6,15.8,35.4,35.4,35.4c19.6,0,35.4-15.8,35.4-35.4C80.8,559.8,64.9,544,45.4,544z"/><path id="XMLID_9_" d="M121.8,432.3c-14.9,0-27,12.1-27,27c0,14.9,12.1,27,27,27c14.9,0,27-12.1,27-27C148.8,444.4,136.7,432.3,121.8,432.3z"/><path id="XMLID_10_" d="M71.3,331.6c26.3,0,47.6-21.3,47.6-47.6c0-26.3-21.3-47.6-47.6-47.6c-26.3,0-47.6,21.3-47.6,47.6C23.6,310.3,44.9,331.6,71.3,331.6z"/><path id="XMLID_11_" d="M146.3,124.7c15.1,0,27.4-12.3,27.4-27.4c0-15.1-12.3-27.4-27.4-27.4c-15.1,0-27.4,12.2-27.4,27.4C118.9,112.5,131.1,124.7,146.3,124.7z"/></g><g></g><g></g><g></g><g></g><g></g><g></g><g></g><g></g><g></g><g></g><g></g><g></g><g></g><g></g><g></g></g>
</svg>